<?xml version="1.0" encoding="UTF-8" standalone="no"?>
<!-- Created with Inkscape (http://www.inkscape.org/) -->

<svg
   width="100"
   height="25"
   viewBox="0 0 26.458333 6.6145831"
   version="1.1"
   id="svg1020"
   xml:space="preserve"
   inkscape:version="1.2.1 (9c6d41e410, 2022-07-14)"
   sodipodi:docname="logo--novo.svg"
   xmlns:inkscape="http://www.inkscape.org/namespaces/inkscape"
   xmlns:sodipodi="http://sodipodi.sourceforge.net/DTD/sodipodi-0.dtd"
   xmlns:xlink="http://www.w3.org/1999/xlink"
   xmlns="http://www.w3.org/2000/svg"
   xmlns:svg="http://www.w3.org/2000/svg"><sodipodi:namedview
     id="namedview1022"
     pagecolor="#ffffff"
     bordercolor="#000000"
     borderopacity="0.25"
     inkscape:showpageshadow="2"
     inkscape:pageopacity="0.0"
     inkscape:pagecheckerboard="0"
     inkscape:deskcolor="#d1d1d1"
     inkscape:document-units="mm"
     showgrid="false"
     inkscape:zoom="8"
     inkscape:cx="30.125"
     inkscape:cy="4.625"
     inkscape:window-width="1920"
     inkscape:window-height="1017"
     inkscape:window-x="-8"
     inkscape:window-y="-8"
     inkscape:window-maximized="1"
     inkscape:current-layer="layer1" /><defs
     id="defs1017"><linearGradient
       inkscape:collect="always"
       id="linearGradient3966"><stop
         style="stop-color:#bcd8f3;stop-opacity:0.66741073;"
         offset="0"
         id="stop3962" /><stop
         style="stop-color:#154580;stop-opacity:0;"
         offset="1"
         id="stop3964" /></linearGradient><linearGradient
       inkscape:collect="always"
       xlink:href="#linearGradient3966"
       id="linearGradient3968"
       x1="6.3764583"
       y1="3.3072917"
       x2="18.394558"
       y2="3.3072917"
       gradientUnits="userSpaceOnUse"
       gradientTransform="matrix(1.0467017,0,0,1,-0.29779161,0)" /></defs><g
     inkscape:label="Camada 1"
     inkscape:groupmode="layer"
     id="layer1"><path
       id="rect3846"
       style="fill:url(#linearGradient3968);fill-opacity:1;stroke:none;stroke-width:1.53584;stroke-opacity:1"
       d="M 18.955824,2.6666666e-8 6.3764583,2.0236098 V 2.3761854 4.1331055 4.5907812 L 18.955824,6.6145833 V 3.496933 3.0269605 Z" /><path
       id="path328"
       style="fill:#154580;fill-opacity:1;stroke-width:0.345431"
       d="M 1.6666666e-7,1.322912 V 3.340135 5.35736 H 2.4843642 4.9687702 V 4.632814 3.908307 l 0.709794,0.608517 0.709836,0.608515 V 3.340135 1.554893 L 5.6785642,2.163409 4.9687702,2.771925 V 2.047418 1.322912 H 2.4843642 Z M 10.502514,1.322912 v 4.017112 h 0.658679 V 1.322912 Z m 10.413466,0 v 4.017112 h 0.658679 V 1.322912 Z M 8.3327032,1.540197 7.2446372,5.340024 h 0.729551 L 8.1847222,4.49472 h 1.062987 l 0.212614,0.845304 H 10.194032 L 9.1310042,1.540197 Z m 10.0257958,0 v 3.799827 h 0.673236 V 4.031035 h 0.321001 c 0.361289,0 0.649628,-0.117474 0.865012,-0.352423 0.216774,-0.236716 0.32516,-0.545879 0.32516,-0.927451 0,-0.807306 -0.376591,-1.210964 -1.12974,-1.210964 z M 1.5971002,2.079371 2.6618342,2.709753 3.7265672,3.340135 2.6618342,3.970518 1.5971002,4.6009 V 3.340135 Z m 17.4346348,0.118 h 0.264728 c 0.35851,0 0.537731,0.195181 0.537731,0.585585 0,0.399237 -0.179221,0.598864 -0.537731,0.598864 h -0.264728 z m -10.3259588,0.0212 h 0.01668 c 0.0097,0.13249 0.02641,0.246432 0.05003,0.341825 l 0.321001,1.277194 h -0.764986 l 0.325201,-1.287792 c 0.02779,-0.109525 0.04512,-0.219935 0.05207,-0.331227 z m 8.1540268,0.341825 c -0.130619,0 -0.275824,0.02294 -0.435625,0.06887 -0.158412,0.04593 -0.28344,0.09895 -0.375152,0.159014 v 0.630658 c 0.22928,-0.192552 0.471057,-0.288833 0.72535,-0.288833 0.252902,0 0.379353,0.14839 0.379353,0.445168 l -0.579448,0.09802 c -0.490521,0.08126 -0.735789,0.385105 -0.735789,0.911533 0,0.249082 0.05906,0.448708 0.177177,0.598863 0.119504,0.148389 0.282773,0.222564 0.48982,0.222564 0.280694,0 0.492594,-0.151921 0.63572,-0.455766 h 0.0084 v 0.389537 h 0.623202 V 3.718326 c 0,-0.771977 -0.304334,-1.157934 -0.912968,-1.157934 z m 6.132199,0 c -0.130619,0 -0.275824,0.02294 -0.435625,0.06887 -0.158412,0.04593 -0.28344,0.09895 -0.375152,0.159014 v 0.630658 c 0.229279,-0.192552 0.471058,-0.288833 0.725349,-0.288833 0.252903,0 0.379353,0.14839 0.379353,0.445168 l -0.579447,0.09802 c -0.49052,0.08126 -0.73579,0.385105 -0.73579,0.911533 0,0.249082 0.05907,0.448708 0.177179,0.598863 0.119503,0.148389 0.282772,0.222564 0.489819,0.222564 0.280693,0 0.492594,-0.151921 0.63572,-0.455766 h 0.0084 V 5.340024 H 23.90501 V 3.718326 c 0,-0.771977 -0.304334,-1.157934 -0.912968,-1.157934 z m -7.464072,0.01852 c -0.270967,0 -0.458593,0.183751 -0.562811,0.55119 h -0.0083 V 2.626628 h -0.65868 V 5.34003 h 0.65868 V 4.044279 c 0,-0.22965 0.04031,-0.410742 0.120906,-0.543232 0.08059,-0.134257 0.192431,-0.201368 0.335557,-0.201368 0.105607,0 0.19804,0.02738 0.277246,0.08215 V 2.610713 c -0.03891,-0.0212 -0.0931,-0.03179 -0.16258,-0.03179 z m -3.845684,0.04771 v 1.637575 c 0,0.761378 0.247381,1.142056 0.74207,1.142056 0.272357,0 0.489818,-0.159859 0.652399,-0.479602 h 0.0104 v 0.413373 h 0.6566 V 2.626626 h -0.6566 v 1.552789 c 0,0.180187 -0.03544,0.323259 -0.106307,0.429252 -0.07087,0.104225 -0.165329,0.156373 -0.283443,0.156373 -0.239007,0 -0.358516,-0.191688 -0.358516,-0.575026 V 2.626626 Z m 12.458254,0 0.867093,2.708122 -0.112546,0.336507 c -0.0667,0.203151 -0.184829,0.30471 -0.354357,0.30471 -0.102828,0 -0.198021,-0.03266 -0.285564,-0.09802 v 0.667733 c 0.102828,0.04593 0.23415,0.06891 0.393951,0.06891 0.419651,0 0.733728,-0.352422 0.942164,-1.05727 l 0.867092,-2.930687 h -0.65244 l -0.402269,1.656133 c -0.03335,0.136023 -0.05629,0.255243 -0.06879,0.357702 h -0.0083 C 25.312634,4.50091 25.293194,4.379904 25.268184,4.277445 L 24.870051,2.626631 Z m -6.986771,1.42825 v 0.18285 c 0,0.166054 -0.03893,0.303847 -0.116747,0.413373 -0.07782,0.107759 -0.178529,0.161614 -0.302201,0.161614 -0.08893,0 -0.15981,-0.03004 -0.212614,-0.0901 -0.05141,-0.06183 -0.07715,-0.140409 -0.07715,-0.235803 0,-0.210217 0.107006,-0.333009 0.321001,-0.36834 z m 6.132198,0 v 0.18285 c 0,0.166054 -0.03893,0.303847 -0.116746,0.413373 -0.07782,0.107759 -0.178529,0.161614 -0.302202,0.161614 -0.08893,0 -0.15981,-0.03004 -0.212614,-0.0901 -0.05141,-0.06183 -0.07715,-0.140409 -0.07715,-0.235803 0,-0.210217 0.107006,-0.333009 0.321,-0.36834 z" /></g></svg>
