<?xml version="1.0" encoding="UTF-8" standalone="no"?>
<!-- Created with Inkscape (http://www.inkscape.org/) -->

<svg
   width="20"
   height="20"
   viewBox="0 0 5.2916665 5.2916667"
   version="1.1"
   id="svg545"
   xml:space="preserve"
   inkscape:version="1.2.1 (9c6d41e410, 2022-07-14)"
   sodipodi:docname="search--novo.svg"
   xmlns:inkscape="http://www.inkscape.org/namespaces/inkscape"
   xmlns:sodipodi="http://sodipodi.sourceforge.net/DTD/sodipodi-0.dtd"
   xmlns="http://www.w3.org/2000/svg"
   xmlns:svg="http://www.w3.org/2000/svg"><sodipodi:namedview
     id="namedview547"
     pagecolor="#ffffff"
     bordercolor="#000000"
     borderopacity="0.25"
     inkscape:showpageshadow="2"
     inkscape:pageopacity="0.0"
     inkscape:pagecheckerboard="0"
     inkscape:deskcolor="#d1d1d1"
     inkscape:document-units="mm"
     showgrid="false"
     inkscape:zoom="11.930303"
     inkscape:cx="-2.2631445"
     inkscape:cy="4.0233681"
     inkscape:window-width="1920"
     inkscape:window-height="1017"
     inkscape:window-x="-8"
     inkscape:window-y="-8"
     inkscape:window-maximized="1"
     inkscape:current-layer="layer1" /><defs
     id="defs542" /><g
     inkscape:label="Camada 1"
     inkscape:groupmode="layer"
     id="layer1"><path
       id="rect828"
       style="fill:#154580;stroke-width:6.596"
       d="M 2.01754,0 A 2.0173356,1.9698077 0 0 0 0,1.9700071 2.0173356,1.9698077 0 0 0 2.0175392,3.9400136 2.0173356,1.9698077 0 0 0 3.0263089,3.676247 l 1.5944047,1.5568409 c 0.079991,0.078106 0.2080801,0.078104 0.2880702,-1e-6 L 5.2316745,4.9188338 c 0.079991,-0.078106 0.079989,-0.2042062 -10e-7,-0.2823118 L 3.6657591,3.1075002 A 2.0173356,1.9698077 0 0 0 4.0350791,1.9700063 2.0173356,1.9698077 0 0 0 2.01754,0 Z m 4e-7,0.60995984 A 1.3929222,1.3601053 0 0 1 3.4104023,1.9700061 1.3929222,1.3601053 0 0 1 3.2141343,2.6665157 l -0.00106,-0.00103 a 1.3929222,1.3601053 0 0 1 -0.047483,0.072125 1.3929222,1.3601053 0 0 1 -0.051704,0.070063 1.3929222,1.3601053 0 0 1 -0.1171274,0.1277624 1.3929222,1.3601053 0 0 1 -0.1962686,0.1586727 1.3929222,1.3601053 0 0 1 -0.00739,0.00514 1.3929222,1.3601053 0 0 1 -0.00527,0.00309 1.3929222,1.3601053 0 0 1 -0.069642,0.042243 1.3929222,1.3601053 0 0 1 -0.1287337,0.06388 1.3929222,1.3601053 0 0 1 -0.028491,0.013399 A 1.3929222,1.3601053 0 0 1 2.0175404,3.3300532 1.3929222,1.3601053 0 0 1 0.62467852,1.9700069 1.3929222,1.3601053 0 0 1 2.0175404,0.60995984 Z" /><path
       style="fill:#000000;stroke-width:0.894366"
       id="path706"
       d="" /><path
       style="fill:#000000;stroke-width:0.894366"
       id="path704"
       d="" /><path
       style="fill:#000000;stroke-width:0.894366"
       id="path702"
       d="" /><path
       style="fill:#000000;stroke-width:0.894366"
       id="path700"
       d="" /></g></svg>
